<svg xmlns="http://www.w3.org/2000/svg" width="1.742in" height="1.742in" viewBox="0 0 125.447 125.447"><defs><style>.a{fill:#38bbb9;}.b{fill:#fff;}.c{fill:#4a4d4f;}</style></defs><title>rauh_studios-logo</title><path class="a" d="M92.915,57.5a19.541,19.541,0,0,1-3.194,9.335c-2.754,3.979-7.14,6.492-11.522,8.546-8,3.749-16.961,6.447-25.623,4.707A27.035,27.035,0,0,1,32,59.878C27.817,40.869,46.371,24,64.436,23.706,72.641,23.574,81,27,86.172,33.367c3.68,4.526,5.628,10.26,6.472,16.032A33.791,33.791,0,0,1,92.915,57.5Z"/><path class="b" d="M74.978,65.3H50.47a.875.875,0,0,1-.875-.875V58.667a.875.875,0,0,1,.875-.875h3.25a.875.875,0,0,1,.875.875v.062A1.567,1.567,0,0,0,56.162,60.3H69.81a1.043,1.043,0,0,0,1.043-1.043h0A1.043,1.043,0,0,0,69.81,58.21H57.556a.875.875,0,0,1-.875-.875V47a.875.875,0,0,1,.875-.875H74.978a.875.875,0,0,1,.875.875v3.25a.875.875,0,0,1-.875.875H62.724a1.043,1.043,0,0,0-1.043,1.043h0a1.043,1.043,0,0,0,1.043,1.043H74.978a.875.875,0,0,1,.875.875V64.421A.875.875,0,0,1,74.978,65.3Z"/><path class="b" d="M53.72,55.706H50.47a.875.875,0,0,1-.875-.875V39.913a.875.875,0,0,1,.875-.875H74.978a.875.875,0,0,1,.875.875v3.25a.875.875,0,0,1-.875.875H55.991a1.4,1.4,0,0,0-1.4,1.4v9.4A.875.875,0,0,1,53.72,55.706Z"/><path class="c" d="M19.35,91.068a.59.59,0,0,1,.66-.659h2.326a4.418,4.418,0,0,1,1.667.2,2.492,2.492,0,0,1,1.583,2.494A2.61,2.61,0,0,1,24.3,95.446v.024a4.817,4.817,0,0,1,.324.516l1.224,2.206c.264.456.06.792-.456.792h-.911a.813.813,0,0,1-.78-.468l-1.271-2.423h-.983v2.231a.589.589,0,0,1-.659.659H20.01a.59.59,0,0,1-.66-.659ZM22.36,94.3a.981.981,0,0,0,1.091-1.056.842.842,0,0,0-.5-.911,2,2,0,0,0-.792-.12h-.708V94.3Z"/><path class="c" d="M29.081,90.949a.7.7,0,0,1,.743-.54H30.9a.7.7,0,0,1,.744.54l2.482,7.279a.514.514,0,0,1-.54.756H32.8a.713.713,0,0,1-.744-.552L31.7,97.186H29.021l-.359,1.247a.691.691,0,0,1-.731.552h-.792a.515.515,0,0,1-.54-.756ZM31.2,95.506l-.479-1.667c-.155-.539-.348-1.475-.348-1.475h-.024S30.16,93.3,30,93.839l-.491,1.667Z"/><path class="c" d="M34.854,91.068a.59.59,0,0,1,.66-.659h.779a.589.589,0,0,1,.659.659V95.83a1.492,1.492,0,0,0,2.975,0V91.068a.59.59,0,0,1,.66-.659h.779a.589.589,0,0,1,.659.659V95.83a3.271,3.271,0,0,1-3.573,3.3,3.279,3.279,0,0,1-3.6-3.3Z"/><path class="c" d="M43.6,91.068a.59.59,0,0,1,.66-.659h.779a.589.589,0,0,1,.659.659v2.771h3.119V91.068a.589.589,0,0,1,.659-.659h.779a.59.59,0,0,1,.66.659v7.257a.59.59,0,0,1-.66.659h-.779a.589.589,0,0,1-.659-.659v-2.7H45.7v2.7a.589.589,0,0,1-.659.659h-.779a.59.59,0,0,1-.66-.659Z"/><path class="c" d="M55.3,97.365l.372-.54c.239-.348.516-.371.911-.155a3.111,3.111,0,0,0,1.56.527c.623,0,.911-.264.911-.6,0-1.211-3.79-1.02-3.79-3.706,0-1.583,1.319-2.626,3.059-2.626a4.421,4.421,0,0,1,2.314.635.631.631,0,0,1,.2.9l-.288.563c-.239.468-.563.4-.9.228a2.914,2.914,0,0,0-1.355-.4c-.659,0-.936.264-.936.6,0,1.247,3.79.947,3.79,3.658a2.721,2.721,0,0,1-3.01,2.674,4.781,4.781,0,0,1-2.723-.852A.582.582,0,0,1,55.3,97.365Z"/><path class="c" d="M64.469,92.208H62.525a.589.589,0,0,1-.659-.659v-.48a.589.589,0,0,1,.659-.659h5.985a.589.589,0,0,1,.659.659v.48a.589.589,0,0,1-.659.659H66.567v6.117a.589.589,0,0,1-.66.659h-.779a.589.589,0,0,1-.659-.659Z"/><path class="c" d="M69.989,91.068a.59.59,0,0,1,.66-.659h.779a.59.59,0,0,1,.66.659V95.83a1.491,1.491,0,0,0,2.974,0V91.068a.59.59,0,0,1,.66-.659H76.5a.59.59,0,0,1,.66.659V95.83a3.6,3.6,0,0,1-7.173,0Z"/><path class="c" d="M78.736,91.068a.59.59,0,0,1,.66-.659h2.387c2.7,0,4.426,1.571,4.426,4.27s-1.728,4.306-4.426,4.306H79.4a.59.59,0,0,1-.66-.659ZM81.7,97.186a2.494,2.494,0,0,0,0-4.978h-.863v4.978Z"/><path class="c" d="M87.448,91.068a.59.59,0,0,1,.66-.659h.779a.59.59,0,0,1,.66.659v7.257a.59.59,0,0,1-.66.659h-.779a.59.59,0,0,1-.66-.659Z"/><path class="c" d="M95.246,90.266a4.3,4.3,0,0,1,4.485,4.377,4.485,4.485,0,1,1-8.971,0A4.3,4.3,0,0,1,95.246,90.266Zm0,6.943a2.375,2.375,0,0,0,2.314-2.566,2.319,2.319,0,1,0-4.629,0A2.375,2.375,0,0,0,95.246,97.209Z"/><path class="c" d="M100.673,97.365l.372-.54c.239-.348.516-.371.911-.155a3.111,3.111,0,0,0,1.56.527c.623,0,.911-.264.911-.6,0-1.211-3.79-1.02-3.79-3.706,0-1.583,1.319-2.626,3.059-2.626a4.421,4.421,0,0,1,2.314.635.631.631,0,0,1,.2.9l-.288.563c-.239.468-.563.4-.9.228a2.914,2.914,0,0,0-1.355-.4c-.659,0-.936.264-.936.6,0,1.247,3.79.947,3.79,3.658a2.721,2.721,0,0,1-3.01,2.674,4.781,4.781,0,0,1-2.723-.852A.582.582,0,0,1,100.673,97.365Z"/></svg>